# xmcd
#
# Track frame offsets:
#	150
#	16170
#	29674
#	44136
#	71204
#	85530
#	102961
#	117655
#	132578
#	155524
#	173321
#	185692
#	206249
#	223181
#
# Disc length: 3199 seconds
#
# Revision: 0
# Processed by: cddbd v1.5.2PL0 Copyright (c) Steve Scherf et al.
# Submitted via: EasyCDDAExtractor 2010.4.0.0
#
DISCID=d30c7d0e
DTITLE=Victor Wainwright and the WildRoots - Lit Up 
DYEAR=2011
DGENRE=Blues
TTITLE0=Big Dog's Runnin' This Town 
TTITLE1=Ting Tang Bang 
TTITLE2=Subliminal Criminal 
TTITLE3=Walk Away My Blues 
TTITLE4=Dixie Highway 
TTITLE5=Weeds 
TTITLE6=Little Ole Shack 
TTITLE7=Lit Up 
TTITLE8=Our Last Goodbye 
TTITLE9=Don't Doubt It 
TTITLE10=Coin Operated Woman 
TTITLE11=Pile of Blues 
TTITLE12=Honky Tonk Heaven 
TTITLE13=Let It Be The Same 
EXTD=
EXTT0=
EXTT1=
EXTT2=
EXTT3=
EXTT4=
EXTT5=
EXTT6=
EXTT7=
EXTT8=
EXTT9=
EXTT10=
EXTT11=
EXTT12=
EXTT13=
PLAYORDER=
